<svg width="134" height="99" viewBox="0 0 134 99" fill="none" xmlns="http://www.w3.org/2000/svg">
<path d="M29.1428 46.6167H36.3807C40.5799 46.6167 44.1159 48.0413 44.1159 52.7807C44.1887 53.9549 43.9035 55.1237 43.2975 56.1351C42.6915 57.1464 41.7927 57.9536 40.718 58.4516L45.1105 66.232H39.834L36.1874 59.3283H33.8668V66.232H29.1428V46.6167ZM35.9664 55.6025C38.2317 55.6025 39.4472 54.6162 39.4472 52.8629C39.4472 51.1096 38.2317 50.3973 35.9664 50.3973H33.8116V55.7121L35.9664 55.6025Z" fill="#020302"/>
<path d="M47.9006 46.6167H60.4427V50.5343H52.5417V54.2053H59.1995V58.1229H52.5417V62.3144H60.8294V66.232H47.9006V46.6167Z" fill="#020302"/>
<path d="M64.6143 46.6167H69.3659V54.3697L74.891 46.6167H80.1675L74.2004 54.4793L81.2725 66.232H76.1894L71.5207 58.1777L69.3659 61.0816V66.232H64.6143V46.6167Z" fill="#020302"/>
<path d="M81.6594 56.3146C81.6594 49.8492 85.3613 46.2056 90.7206 46.2056C96.08 46.2056 99.7818 49.904 99.7818 56.3146C99.7818 62.7251 96.1076 66.5605 90.7206 66.5605C85.3336 66.5605 81.6594 62.7251 81.6594 56.3146ZM94.9473 56.3146C94.9473 52.4792 93.3451 50.2601 90.7206 50.2601C88.0962 50.2601 86.4939 52.4792 86.4939 56.3146C86.4939 60.15 88.1514 62.5334 90.7206 62.5334C93.2898 62.5334 94.9473 60.1226 94.9473 56.3146Z" fill="#020302"/>
<path d="M20.8553 90.0663L23.3968 89.7649C23.3968 88.2308 23.3968 86.0117 23.3968 84.5324V83.0804C23.3968 81.1627 23.3968 79.5737 23.3968 78.204L20.6343 78.067V77.2999L24.3361 76.3137L24.6953 76.5602L24.9163 80.3408C25.2252 79.2651 25.845 78.3027 26.6993 77.5725C27.5535 76.8422 28.6047 76.376 29.7231 76.2315C30.1197 76.211 30.5157 76.282 30.88 76.4388C31.2443 76.5957 31.567 76.8342 31.8227 77.1355C31.8227 78.067 31.3807 78.5601 30.5243 78.5601C29.8986 78.5113 29.3155 78.227 28.8944 77.7656L28.5628 77.4643C27.69 77.9155 26.9174 78.536 26.291 79.2889C25.6645 80.0419 25.1971 80.912 24.9163 81.8476V84.5872C24.9163 86.0665 24.9163 88.2856 24.9163 89.8197L27.6788 90.1211V90.9155H20.8553V90.0663Z" fill="#020302"/>
<path d="M33.3421 90.0669L35.9112 89.7655C35.9112 88.2314 35.9112 86.0123 35.9112 84.533V83.081C35.9112 81.3003 35.9112 79.7935 35.9112 78.2046L33.1487 78.0676V77.3005L37.0992 76.3143L37.4583 76.5608V80.314V84.533C37.4583 86.0123 37.4583 88.2314 37.4583 89.7655L39.8065 90.0669V90.8614H33.3421V90.0669ZM35.1654 70.6434C35.1614 70.4601 35.1954 70.2779 35.2652 70.1082C35.3349 69.9384 35.439 69.7846 35.5711 69.6563C35.7031 69.5279 35.8602 69.4278 36.0327 69.362C36.2053 69.2961 36.3896 69.2661 36.5743 69.2736C36.8382 69.2843 37.0932 69.3714 37.3078 69.5241C37.5224 69.6768 37.6873 69.8884 37.7821 70.1329C37.8769 70.3774 37.8976 70.644 37.8415 70.9C37.7854 71.1559 37.655 71.39 37.4664 71.5734C37.2778 71.7568 37.0392 71.8814 36.78 71.932C36.5208 71.9826 36.2524 71.9568 36.0078 71.8579C35.7632 71.7591 35.5531 71.5914 35.4034 71.3756C35.2537 71.1598 35.171 70.9053 35.1654 70.6434Z" fill="#020302"/>
<path d="M42.4583 90.0668L45.0275 89.7655C45.0275 88.2313 45.0275 86.0123 45.0275 84.5329V83.0809C45.0275 81.1632 45.0275 79.5743 45.0275 78.2045L42.2649 78.0675V77.3005L45.9667 76.3142L46.3259 76.5608L46.4916 79.3003C47.1849 78.4002 48.063 77.6564 49.0679 77.118C50.0728 76.5796 51.1815 76.2589 52.3206 76.1772C54.7241 76.1772 56.0501 77.6292 56.0501 81.492V84.4781C56.0501 85.9849 56.0501 88.2039 56.0501 89.7107L58.3707 90.012V90.8065H52.0168V90.012L54.5583 89.7107C54.5583 88.1765 54.5583 85.9849 54.5583 84.4781V81.629C54.5583 78.6429 53.5085 77.6018 51.7957 77.6018C50.7817 77.6754 49.794 77.9569 48.8953 78.4284C47.9966 78.9 47.2063 79.5514 46.5745 80.3414V84.5055C46.5745 85.9849 46.5745 88.2039 46.5745 89.7381L48.9227 90.0394V90.8339H42.4583V90.0668Z" fill="#020302"/>
<path d="M64.5037 85.7649C63.7711 86.3785 63.314 87.2555 63.2329 88.2031C63.2329 89.0797 63.8683 89.6825 65.6363 89.6825H69.8631C72.6256 89.6825 74.1451 90.9426 74.1451 93.2713C74.1451 95.5999 71.8245 98.1751 67.1281 98.1751C63.0672 98.1751 60.9124 96.5862 60.9124 94.2849C60.9725 93.4986 61.2674 92.7477 61.7594 92.1281C62.2514 91.5085 62.9182 91.0482 63.6749 90.8057C63.1918 90.7119 62.7556 90.4569 62.4389 90.083C62.1223 89.7092 61.9443 89.2391 61.9345 88.751C61.9345 87.6004 62.6251 86.6689 63.9512 85.4635C63.2108 85.0348 62.6046 84.4111 62.1998 83.6616C61.7951 82.912 61.6076 82.066 61.6582 81.2172C61.633 80.5392 61.7524 79.8636 62.0085 79.2344C62.2646 78.6053 62.6517 78.0369 63.1445 77.5663C63.6373 77.0957 64.2247 76.7335 64.8683 76.5035C65.5119 76.2734 66.1973 76.1806 66.8795 76.2312C68.1146 76.1939 69.3248 76.581 70.3051 77.327L73.7859 76.3956L74.2556 76.6969V77.9845H70.9128C71.5998 78.9201 71.9412 80.0615 71.8797 81.2172C71.901 81.8929 71.7787 82.5655 71.5208 83.1914C71.263 83.8172 70.8753 84.3822 70.3829 84.8498C69.8905 85.3174 69.3045 85.6771 68.6629 85.9056C68.0212 86.134 67.3383 86.2261 66.6585 86.1758C65.9209 86.1708 65.1905 86.0316 64.5037 85.7649ZM67.2663 97.1889C70.8852 97.1889 72.7914 95.5725 72.7914 93.6C72.7914 92.2029 71.9902 91.1344 69.6421 91.1344H65.8297C65.2786 91.1894 64.7233 91.1894 64.1722 91.1344C63.6508 91.4452 63.2176 91.8823 62.9131 92.4046C62.6087 92.9269 62.4431 93.5174 62.4318 94.1205C62.4318 96.093 64.2274 97.1889 67.211 97.1889H67.2663ZM70.5537 81.1898C70.612 80.6767 70.5605 80.1571 70.4025 79.665C70.2445 79.173 69.9836 78.7195 69.6368 78.3343C69.29 77.949 68.8652 77.6407 68.3901 77.4293C67.915 77.218 67.4002 77.1085 66.8795 77.1078C66.3541 77.1089 65.8348 77.2192 65.3551 77.4317C64.8754 77.6441 64.446 77.954 64.0945 78.3412C63.7431 78.7285 63.4774 79.1845 63.3148 79.6799C63.1521 80.1753 63.0959 80.699 63.15 81.2172C63.0922 81.7294 63.143 82.2479 63.2991 82.7395C63.4552 83.2311 63.7132 83.685 64.0566 84.0719C64.3999 84.4588 64.821 84.7703 65.2929 84.9863C65.7648 85.2024 66.277 85.3183 66.7966 85.3265C67.3209 85.3179 67.8377 85.2013 68.3141 84.9841C68.7906 84.767 69.2164 84.454 69.5644 84.065C69.9125 83.6761 70.1752 83.2197 70.336 82.7247C70.4968 82.2298 70.5521 81.7071 70.4985 81.1898H70.5537Z" fill="#020302"/>
<path d="M76.4934 83.7648C76.4144 82.833 76.5255 81.8951 76.8202 81.0069C77.1149 80.1187 77.587 79.2985 78.2084 78.5953C78.8299 77.8921 79.5878 77.3203 80.4371 76.9141C81.2863 76.5079 82.2094 76.2755 83.1512 76.231C83.8909 76.2306 84.6232 76.3776 85.3046 76.6632C85.986 76.9488 86.6026 77.3671 87.1179 77.8934C87.6331 78.4198 88.0366 79.0433 88.3043 79.7272C88.572 80.411 88.6985 81.1412 88.6763 81.8745C88.6755 82.4567 88.6012 83.0365 88.4553 83.6004H78.1233C78.1233 88.0659 80.6373 90.0384 83.6485 90.0384C84.5114 90.0509 85.3667 89.8759 86.1541 89.5256C86.9416 89.1754 87.6422 88.6585 88.2067 88.0111L88.6763 88.4494C88.0817 89.3105 87.2806 90.0116 86.3452 90.4898C85.4098 90.9679 84.3692 91.2082 83.317 91.189C82.3571 91.211 81.4037 91.0286 80.521 90.6541C79.6383 90.2796 78.8468 89.7217 78.2001 89.018C77.5533 88.3143 77.0663 87.4813 76.7719 86.575C76.4775 85.6688 76.3825 84.7105 76.4934 83.7648V83.7648ZM78.151 82.6963H86.0795C86.9359 82.6963 87.1846 82.2306 87.1846 81.3539C87.2031 80.8101 87.111 80.2681 86.9139 79.7602C86.7167 79.2524 86.4185 78.7891 86.037 78.398C85.6555 78.0068 85.1984 77.6959 84.6932 77.4836C84.1879 77.2713 83.6447 77.1621 83.0959 77.1624C81.7237 77.3059 80.4553 77.9534 79.5402 78.9775C78.6251 80.0016 78.1295 81.3282 78.151 82.6963V82.6963Z" fill="#020302"/>
<path d="M91.3836 90.0668L93.9528 89.7655C93.9528 88.2313 93.9528 86.0123 93.9528 84.5329V83.0809C93.9528 81.1632 93.9528 79.5743 93.9528 78.2045L91.1902 78.0675V77.3005L94.892 76.3142L95.2511 76.5608L95.4169 79.3003C96.1102 78.4002 96.9883 77.6564 97.9932 77.118C98.998 76.5796 100.107 76.2589 101.246 76.1772C103.649 76.1772 104.975 77.6292 104.975 81.492V84.4781C104.975 85.9849 104.975 88.2039 104.975 89.7107L107.296 90.012V90.8065H100.942V90.012L103.484 89.7107C103.484 88.1765 103.484 85.9849 103.484 84.4781V81.629C103.484 78.6429 102.461 77.6018 100.721 77.6018C99.707 77.6754 98.7193 77.9569 97.8206 78.4284C96.9219 78.9 96.1316 79.5514 95.4998 80.3414V84.5055C95.4998 85.9849 95.4998 88.2039 95.4998 89.7381L97.848 90.0394V90.8339H91.3836V90.0668Z" fill="#020302"/>
<path d="M96.4667 43.1101L104.229 30.1793C104.606 29.5727 105.04 29.0038 105.528 28.4808C106.644 27.3484 108.025 26.5061 109.547 26.0283C111.07 25.5505 112.688 25.4519 114.258 25.7412L116.33 29.9602C116.375 30.0484 116.431 30.1311 116.495 30.2067V30.2067L117.517 31.1656C117.587 31.2384 117.672 31.2946 117.766 31.3299L122.131 33.1654C122.493 34.7183 122.457 36.3363 122.028 37.8721C121.598 39.408 120.789 40.813 119.672 41.9594C119.187 42.4801 118.64 42.9401 118.042 43.3292L108.456 49.685C108.953 50.0138 109.478 50.3151 109.976 50.6713L118.982 44.699C119.673 44.2284 120.312 43.6866 120.888 43.0827C122.059 41.8834 122.942 40.4382 123.473 38.8542C124.004 37.2703 124.168 35.5881 123.954 33.9325L124.369 34.0969C125.622 34.6192 126.817 35.2712 127.932 36.042C128.63 36.495 129.447 36.7332 130.281 36.7269C130.888 36.7174 131.485 36.5661 132.022 36.2853C132.56 36.0045 133.023 35.602 133.375 35.1105C133.645 34.7495 133.834 34.3354 133.929 33.8959C134.024 33.4565 134.024 33.0019 133.927 32.5627C133.826 32.097 133.63 31.6571 133.349 31.2704C133.069 30.8838 132.71 30.559 132.297 30.3163C131.91 30.0697 131.468 29.878 131.054 29.6588C131.962 29.3863 132.74 28.7991 133.248 28.0044C133.755 27.2096 133.957 26.2605 133.817 25.3303C133.649 24.4401 133.132 23.6521 132.38 23.1386H132.104C132.025 22.6931 131.854 22.2685 131.602 21.8914C131.35 21.5142 131.023 21.1927 130.64 20.947C130.237 20.6837 129.782 20.5084 129.306 20.4328C128.83 20.3572 128.343 20.3831 127.877 20.5087C127.446 20.6111 127.022 20.7392 126.606 20.8922C126.743 20.47 126.853 20.04 126.938 19.6046C127.041 19.1332 127.043 18.6455 126.943 18.1733C126.843 17.7012 126.644 17.2554 126.358 16.865C126.088 16.5001 125.745 16.1948 125.351 15.9684C124.956 15.742 124.518 15.5995 124.065 15.55V15.55C124.026 15.4497 123.97 15.3569 123.899 15.2761C123.658 14.8655 123.327 14.5142 122.93 14.2486C122.533 13.9829 122.08 13.8097 121.606 13.7419C120.69 13.6375 119.766 13.8543 118.994 14.3546C118.222 14.855 117.651 15.6074 117.379 16.4815C117.167 16.0646 116.927 15.6619 116.661 15.2761C116.401 14.8811 116.06 14.5451 115.66 14.2902C115.26 14.0352 114.811 13.867 114.34 13.7967C113.89 13.718 113.427 13.736 112.984 13.8494C112.541 13.9628 112.127 14.169 111.771 14.4542C110.966 15.1043 110.447 16.0389 110.324 17.061C110.2 18.0831 110.481 19.1129 111.108 19.9334C111.985 21.0585 112.727 22.2813 113.318 23.577L113.512 23.9605C111.817 23.8187 110.113 24.058 108.525 24.6604C106.937 25.2628 105.506 26.2129 104.34 27.4398C103.756 28.0352 103.246 28.6973 102.821 29.4122L94.9473 42.4252L96.4667 43.1101ZM131.441 31.7409C131.653 31.8673 131.838 32.034 131.985 32.2314C132.132 32.4289 132.238 32.6532 132.297 32.8915C132.341 33.1135 132.34 33.3421 132.292 33.5634C132.245 33.7847 132.152 33.9942 132.021 34.1791C131.659 34.6447 131.131 34.9552 130.545 35.0469C129.96 35.1386 129.361 35.0045 128.872 34.6722C127.66 33.8447 126.364 33.1468 125.004 32.5901L121.026 30.919L124.037 30.3711C126.591 29.9321 129.219 30.4182 131.441 31.7409V31.7409ZM131.441 24.5358C131.628 24.6624 131.787 24.8244 131.91 25.0125C132.034 25.2006 132.118 25.411 132.159 25.6316C132.226 26.2127 132.07 26.7973 131.721 27.2693C131.373 27.7413 130.859 28.0662 130.281 28.1794C129.516 28.32 128.759 28.5029 128.015 28.7274C126.607 28.4949 125.169 28.4949 123.761 28.7274H123.623L123.788 28.4808C125.26 26.4171 127.424 24.9408 129.894 24.3167C130.147 24.2355 130.416 24.2131 130.679 24.2511C130.943 24.2891 131.194 24.3865 131.413 24.5358H131.441ZM125.557 23.0291C126.423 22.5419 127.353 22.1733 128.319 21.9332C128.809 21.8212 129.323 21.8996 129.756 22.1524C129.938 22.2792 130.097 22.4368 130.225 22.6181H129.645C126.737 23.3335 124.193 25.0773 122.49 27.5219L121.357 29.1109L119.341 29.467L125.557 23.0291ZM124.369 17.8513C124.396 17.6605 124.396 17.4668 124.369 17.276C124.559 17.392 124.727 17.5404 124.866 17.7143C125.147 18.1333 125.255 18.643 125.17 19.1389C125.026 20.1096 124.756 21.058 124.369 21.9606L118.125 28.4534L118.374 26.4261L119.921 25.2481C122.273 23.4115 123.858 20.7768 124.369 17.8513V17.8513ZM118.843 17.4677C118.926 16.8843 119.228 16.3536 119.69 15.9825C120.151 15.6114 120.737 15.4275 121.33 15.4679C121.787 15.5335 122.201 15.7685 122.49 16.1254C122.631 16.3317 122.729 16.5645 122.776 16.8094C122.824 17.0544 122.82 17.3063 122.766 17.5499C122.261 20.0632 120.87 22.3161 118.843 23.9057L118.622 24.0701C118.808 22.6634 118.742 21.2354 118.429 19.8512C118.627 19.068 118.765 18.2713 118.843 17.4677V17.4677ZM112.407 19.2211C112.054 18.748 111.895 18.1603 111.962 17.5758C112.029 16.9914 112.316 16.4537 112.766 16.0706C113.057 15.8612 113.402 15.7378 113.76 15.7144H114.037C114.281 15.7537 114.515 15.842 114.724 15.9738C114.933 16.1057 115.113 16.2785 115.252 16.4815C116.684 18.619 117.292 21.1959 116.965 23.7413L116.606 26.7549L114.727 22.8921C114.069 21.6001 113.293 20.3712 112.407 19.2211V19.2211Z" fill="#070707"/>
<path d="M4.33503 40.4799C3.58426 42.6349 3.27434 44.9166 3.42338 47.1918C3.60321 49.8146 4.449 52.3497 5.88207 54.5612C6.22638 55.0452 6.59519 55.5115 6.98709 55.9584L8.11975 54.8352C7.79528 54.4946 7.49961 54.1281 7.23572 53.7394C6.01502 51.8241 5.26418 49.6516 5.04349 47.3964C4.82279 45.1412 5.13839 42.8662 5.96494 40.7538C7.33387 40.8051 8.69074 40.4829 9.88779 39.8224C10.2447 39.6291 10.5864 39.4093 10.9099 39.1649C10.7622 41.185 11.2136 43.2038 12.2083 44.9728C12.2979 45.1125 12.4266 45.2233 12.5788 45.2914C12.7309 45.3596 12.8998 45.3821 13.0647 45.3563H13.341C13.4465 45.2793 13.5396 45.187 13.6173 45.0824V45.0824C13.6296 45.0098 13.6296 44.9357 13.6173 44.8632C13.7057 43.7152 14.1715 42.6276 14.9433 41.7675L15.1643 41.4935C15.8783 40.4707 16.4023 39.3295 16.7113 38.1239C17.6353 38.2586 18.5778 38.1932 19.4739 37.9321V37.9321C19.8252 37.8223 20.1597 37.6656 20.4684 37.4664C20.8896 37.175 21.3706 36.9798 21.8769 36.8945C22.3832 36.8093 22.9022 36.8361 23.3967 36.9732C23.5542 37.0283 23.7253 37.0313 23.8847 36.982C24.044 36.9326 24.183 36.8334 24.2808 36.6993C24.3884 36.5675 24.4472 36.4031 24.4472 36.2336C24.4472 36.064 24.3884 35.8996 24.2808 35.7678C23.3004 34.2152 21.8357 33.0224 20.1093 32.3708C21.2065 31.7669 22.1511 30.9238 22.8719 29.9052C23.0761 29.6163 23.2606 29.3143 23.4244 29.0011C25.7633 29.0764 28.0562 29.6659 30.1374 30.727C32.388 31.8299 34.2968 33.5146 35.6625 35.6035C35.6625 35.8226 35.8836 36.0418 35.9941 36.261L37.4582 35.6309C37.3332 35.3281 37.1854 35.035 37.0162 34.7542C35.5317 32.4227 33.442 30.5302 30.9662 29.2751C28.8333 28.2046 26.5014 27.5798 24.115 27.4396C24.4208 26.105 24.4208 24.7195 24.115 23.385C24.063 23.1917 23.9418 23.0239 23.7739 22.9129C23.6061 22.802 23.4033 22.7555 23.2034 22.7823C23.0083 22.815 22.8314 22.9158 22.7047 23.0665C22.5781 23.2173 22.51 23.408 22.5127 23.6042C22.5076 23.973 22.4088 24.3346 22.2253 24.6555C22.0418 24.9763 21.7796 25.246 21.4629 25.4397C20.995 25.7086 20.4791 25.8853 19.9435 25.9602C17.6668 26.4117 15.5621 27.4837 13.8659 29.0559L13.4791 29.3025C11.9873 28.2888 7.59486 25.4945 5.19142 26.5629C4.81706 26.6834 4.49033 26.9175 4.25735 27.2321C4.02438 27.5467 3.89694 27.9259 3.89302 28.3162C3.9597 28.9727 4.21327 29.5969 4.62416 30.116C5.03504 30.635 5.58628 31.0275 6.21357 31.2475C6.76609 31.4941 7.53961 31.8776 8.42363 32.3708C6.8187 33.2673 5.43967 34.5131 4.39028 36.0144C2.98137 38.1513 1.35146 37.439 1.15808 37.3568C0.984511 37.265 0.782209 37.2423 0.592326 37.2931C0.402443 37.344 0.239243 37.4648 0.135926 37.6307C0.0273128 37.7912 -0.018578 37.9855 0.00684832 38.1771C0.0322746 38.3687 0.127274 38.5446 0.274054 38.6718C1.48562 39.5489 2.86895 40.1649 4.33503 40.4799V40.4799ZM5.79919 36.7541C6.89803 35.2039 8.39572 33.9741 10.1364 33.1926H10.3022L12.1531 34.4254C12.3293 34.5406 12.5441 34.5821 12.751 34.5411C12.9579 34.5001 13.1401 34.3797 13.2581 34.2063C13.3206 34.1227 13.3653 34.0273 13.3895 33.9261C13.4137 33.8248 13.4168 33.7197 13.3987 33.6172C13.3806 33.5147 13.3417 33.4169 13.2843 33.3298C13.2268 33.2427 13.1522 33.168 13.0647 33.1105L11.1033 31.9872L10.6061 31.6585C9.03139 30.7818 7.84349 30.1243 6.90422 29.7408C6.57402 29.6113 6.28065 29.4039 6.04958 29.1366C5.8185 28.8692 5.65669 28.55 5.57818 28.2066C5.57818 28.2066 5.57818 28.0149 5.88207 27.9053C6.93184 27.4669 10.0812 28.8367 12.9542 30.9188C13.0896 31.0072 13.248 31.0543 13.4101 31.0543C13.5721 31.0543 13.7306 31.0072 13.8659 30.9188L14.7775 30.3161C15.3352 29.8087 15.9575 29.3758 16.6285 29.0285C17.7386 28.2691 18.9862 27.7296 20.3027 27.4396C21.1451 27.3388 21.9506 27.0381 22.6509 26.5629C22.556 26.9836 22.4266 27.3959 22.2641 27.7957C21.7981 28.7631 21.1194 29.6146 20.2781 30.2878C19.4367 30.961 18.4539 31.4387 17.402 31.6859C17.2511 31.7273 17.1157 31.8116 17.0126 31.9284C16.9095 32.0453 16.8432 32.1896 16.8218 32.3434C16.8089 32.4912 16.8353 32.6398 16.8983 32.7744C16.9613 32.909 17.0587 33.0248 17.181 33.1105C17.5002 33.2773 17.8459 33.3885 18.2031 33.4392C19.5176 33.6556 20.7541 34.2027 21.7945 35.0281C21.0759 35.1582 20.3904 35.4282 19.7778 35.8226C19.5817 35.9276 19.3787 36.0191 19.17 36.0966V36.0966C17.2915 36.5349 16.739 36.0966 16.6008 35.9322C16.4704 35.7833 16.2903 35.6858 16.0934 35.6577C15.8965 35.6295 15.6959 35.6725 15.5283 35.7789C15.3608 35.8852 15.2374 36.0478 15.1807 36.2369C15.124 36.426 15.1378 36.629 15.2195 36.8089C15.6063 37.3842 14.5565 39.5484 14.0316 40.2059L13.8659 40.5621C13.4692 41.0289 13.1349 41.5445 12.8714 42.0962C12.6003 40.7304 12.6003 39.3253 12.8714 37.9595C12.9061 37.6316 12.9061 37.3011 12.8714 36.9732C12.8461 36.8431 12.7896 36.721 12.7065 36.6172C12.6234 36.5134 12.5162 36.4311 12.3941 36.3773C12.272 36.3235 12.1386 36.2998 12.0052 36.3081C11.8718 36.3165 11.7425 36.3567 11.6282 36.4253L11.4625 36.5897C10.7829 37.4533 9.89578 38.1341 8.88224 38.5696C7.8687 39.0052 6.76116 39.1816 5.66106 39.0827H5.57818C4.96475 39.0049 4.36229 38.8578 3.78252 38.6444C4.61357 38.2051 5.31014 37.5522 5.79919 36.7541V36.7541ZM5.79919 36.5623V36.7267V36.5623Z" fill="#070707"/>
<path d="M42.569 37.4942L44.1989 37.2476C43.9503 36.5354 43.7017 35.8231 43.4254 35.1108C41.9336 31.1658 40.6629 27.44 41.7679 23.6868C42.2396 22.3377 43.0817 21.146 44.1994 20.2457C45.3171 19.3455 46.6659 18.7725 48.0942 18.5912C49.4986 18.4198 50.9234 18.6379 52.2104 19.2213V19.2213C54.024 20.0471 55.6356 21.2527 56.9344 22.7553C54.9268 24.9382 53.5022 27.5847 52.7905 30.4535C52.7356 30.6606 52.7658 30.8808 52.8746 31.0658C52.9834 31.2507 53.1618 31.3853 53.3707 31.4398C53.5795 31.4943 53.8016 31.4643 53.9881 31.3564C54.1746 31.2485 54.3102 31.0715 54.3652 30.8645V30.8645C55.044 27.7994 56.7005 25.0328 59.0892 22.9745C61.2264 21.3419 63.881 20.5194 66.5752 20.655C69.2695 20.7906 71.8265 21.8754 73.786 23.7142V23.7142C74.5972 24.5248 75.2858 25.4475 75.8303 26.4538C75.8793 26.5455 75.9465 26.6264 76.0279 26.6916C76.1094 26.7568 76.2033 26.805 76.304 26.8331C76.4047 26.8613 76.5102 26.8689 76.6139 26.8555C76.7177 26.8421 76.8177 26.8079 76.9077 26.7551C77.0035 26.7062 77.0883 26.6387 77.1571 26.5565C77.226 26.4744 77.2774 26.3794 77.3083 26.2771C77.3393 26.1748 77.3491 26.0673 77.3372 25.9612C77.3254 25.855 77.292 25.7524 77.2393 25.6593C76.7211 24.7418 76.1102 23.879 75.416 23.0841C76.4898 21.7503 77.8858 20.7069 79.4747 20.0508C81.0635 19.3947 82.7937 19.1471 84.5048 19.3309C85.9357 19.5905 87.2652 20.2408 88.3438 21.2088C89.4223 22.1767 90.2072 23.4239 90.6101 24.81C91.6875 28.618 90.1128 32.2616 88.4553 36.1518C88.1514 36.8367 87.8475 37.5216 87.5713 38.2339L89.1735 38.5626L89.9194 36.7819C91.6322 32.8095 93.4003 28.7276 92.1571 24.3717C91.6699 22.7168 90.7265 21.2297 89.4331 20.0777C88.1397 18.9258 86.5477 18.1548 84.8363 17.8515C83.509 17.5501 82.1302 17.5501 80.803 17.8515C79.5847 16.297 78.0383 15.0253 76.2724 14.1257C74.0973 13.1154 71.6342 12.8925 69.3107 13.4956C69.1231 9.67222 67.6218 6.02761 65.0563 3.16745C63.7995 2.03913 62.3218 1.17953 60.7153 0.642223C59.1089 0.104913 57.4081 -0.0986046 55.7188 0.0443487C55.5061 0.0578905 55.3061 0.149622 55.158 0.301611C55.0098 0.453601 54.9241 0.654921 54.9177 0.866218V3.98932C54.9225 4.18484 54.9975 4.37225 55.1291 4.51787C55.2608 4.66349 55.4405 4.75778 55.636 4.7838C56.7031 4.7815 57.7601 4.98848 58.7463 5.39282C59.7324 5.79716 60.6282 6.39088 61.3821 7.13982C62.8739 9.00272 62.7358 11.9341 62.3214 15.6051C61.4932 15.0586 60.5618 14.6846 59.5836 14.5056C58.6054 14.3267 57.6007 14.3466 56.6305 14.564C55.7302 14.6887 54.8655 14.9963 54.0907 15.4677C53.3158 15.9392 52.6475 16.5642 52.1275 17.3036C50.7555 16.8203 49.2827 16.6884 47.8455 16.9201C46.1178 17.1413 44.4872 17.8388 43.1394 18.9333C41.7915 20.0278 40.7803 21.4754 40.2208 23.1115C38.7291 27.44 40.3866 31.6589 41.906 35.6587L42.569 37.4942ZM79.3112 18.4816C77.468 19.314 75.8069 20.4959 74.4214 21.9609C73.0708 20.7758 71.4642 19.9136 69.7251 19.4405C69.7251 17.9063 69.7251 16.4817 69.7251 15.1394C71.4765 14.6749 73.3285 14.7454 75.0388 15.3417C76.7492 15.9381 78.2382 17.0324 79.3112 18.4816V18.4816ZM62.7358 6.12618C61.1285 4.47287 58.9438 3.49258 56.6305 3.38662V1.66069C58.009 1.58865 59.3879 1.79425 60.6841 2.26509C61.9803 2.73593 63.1669 3.46226 64.1723 4.40026C66.9349 7.13982 68.2885 11.9615 68.2057 19.1391C66.6736 18.9169 65.1152 18.9446 63.5922 19.2213C63.5922 18.646 63.7303 18.0707 63.7855 17.5228C64.3104 12.8381 64.7801 8.78356 62.6529 6.12618H62.7358ZM56.9344 16.153C57.842 15.929 58.7921 15.9372 59.6956 16.1768C60.5992 16.4164 61.4266 16.8795 62.1004 17.5228C62.1004 18.2077 61.9346 18.8926 61.8794 19.6048C60.5001 20.0445 59.2097 20.7215 58.067 21.6047C56.8253 20.1525 55.3276 18.9364 53.6469 18.0159C54.4691 17.0089 55.6421 16.3442 56.9344 16.153V16.153Z" fill="#070707"/>
</svg>
